<svg width="34" height="13" viewBox="0 0 34 13" fill="none" xmlns="http://www.w3.org/2000/svg">
<path d="M2.985 11.792C2.825 11.792 2.65 11.762 2.46 11.702C2.27 11.642 2.085 11.527 1.905 11.357C1.725 11.177 1.575 10.927 1.455 10.607C1.345 10.277 1.29 9.84703 1.29 9.31703C1.29 9.23703 1.29 9.16203 1.29 9.09203C1.29 9.01203 1.295 8.93203 1.305 8.85203L1.485 6.22703C1.305 6.01703 1.215 5.84703 1.215 5.71703C1.215 5.48703 1.325 5.35203 1.545 5.31203L1.74 2.31203C1.54 2.12203 1.36 1.91203 1.2 1.68203C1.04 1.44203 0.96 1.24203 0.96 1.08203C0.96 0.922031 1.055 0.842031 1.245 0.842031C1.385 0.842031 1.615 0.832031 1.935 0.81203C2.255 0.782031 2.605 0.752031 2.985 0.722031C3.365 0.69203 3.73 0.667031 4.08 0.647031C4.43 0.617031 4.705 0.60203 4.905 0.60203C5.705 0.60203 6.32 0.772031 6.75 1.11203C7.18 1.44203 7.395 1.81203 7.395 2.22203C7.395 2.32203 7.345 2.37203 7.245 2.37203C7.155 2.37203 7.07 2.37203 6.99 2.37203C6.91 2.36203 6.83 2.35703 6.75 2.35703C6.32 2.35703 5.86 2.38203 5.37 2.43203C4.89 2.48203 4.44 2.53203 4.02 2.58203L3.825 4.96703C4.085 4.94703 4.325 4.93703 4.545 4.93703C4.695 4.93703 4.87 4.98203 5.07 5.07203C5.28 5.15203 5.48 5.25703 5.67 5.38703C5.86 5.51703 6.02 5.65703 6.15 5.80703C6.28 5.94703 6.345 6.07703 6.345 6.19703C6.345 6.37703 6.3 6.49203 6.21 6.54203C6.12 6.59203 5.98 6.61703 5.79 6.61703C5.56 6.61703 5.25 6.64703 4.86 6.70703C4.47 6.75703 4.075 6.80703 3.675 6.85703L3.315 11.567C3.305 11.657 3.27 11.717 3.21 11.747C3.15 11.777 3.075 11.792 2.985 11.792ZM8.88039 11.882C8.59039 11.882 8.29539 11.802 7.99539 11.642C7.69539 11.482 7.43539 11.267 7.21539 10.997C7.00539 10.717 6.88539 10.402 6.85539 10.052C6.82539 9.73203 6.80039 9.34703 6.78039 8.89703C6.76039 8.44703 6.75039 7.96203 6.75039 7.44203C6.75039 6.71203 6.77539 5.95203 6.82539 5.16203C6.88539 4.37203 6.99039 3.62703 7.14039 2.92703C7.19039 2.71703 7.27539 2.61203 7.39539 2.61203C7.64539 2.61203 7.91039 2.67703 8.19039 2.80703C8.48039 2.93703 8.72539 3.10203 8.92539 3.30203C9.12539 3.49203 9.22539 3.68703 9.22539 3.88703C9.22539 3.99703 9.21539 4.15203 9.19539 4.35203C9.17539 4.54203 9.16039 4.82703 9.15039 5.20703H9.18039C9.24039 4.88703 9.35539 4.54703 9.52539 4.18703C9.70539 3.81703 9.93039 3.50203 10.2004 3.24203C10.4704 2.97203 10.7754 2.83703 11.1154 2.83703C11.3554 3.11703 11.5454 3.48203 11.6854 3.93203C11.8254 4.38203 11.9004 4.83203 11.9104 5.28203C11.3904 5.40203 10.9304 5.58703 10.5304 5.83703C10.1404 6.07703 9.74539 6.40703 9.34539 6.82703C9.21539 7.34703 9.11539 7.90203 9.04539 8.49203C8.98539 9.07203 8.94039 9.62203 8.91039 10.142C8.89039 10.652 8.88039 11.072 8.88039 11.402C8.88039 11.722 8.88039 11.882 8.88039 11.882ZM15.009 11.807C14.679 11.807 14.359 11.742 14.049 11.612C13.749 11.492 13.504 11.282 13.314 10.982C12.834 10.752 12.464 10.352 12.204 9.78203C11.944 9.21203 11.814 8.54703 11.814 7.78703C11.814 7.12703 11.904 6.50203 12.084 5.91203C12.264 5.31203 12.509 4.78203 12.819 4.32203C13.129 3.86203 13.484 3.50203 13.884 3.24203C14.294 2.97203 14.724 2.83703 15.174 2.83703C15.554 2.83703 15.934 2.90703 16.314 3.04703C16.694 3.17703 17.024 3.41703 17.304 3.76703C17.794 4.01703 18.169 4.38203 18.429 4.86203C18.699 5.34203 18.834 5.86703 18.834 6.43703C18.834 7.16703 18.759 7.85703 18.609 8.50703C18.459 9.15703 18.229 9.73203 17.919 10.232C17.609 10.722 17.214 11.107 16.734 11.387C16.254 11.667 15.679 11.807 15.009 11.807ZM14.709 10.157C15.009 10.157 15.274 10.027 15.504 9.76703C15.734 9.50703 15.929 9.17703 16.089 8.77703C16.249 8.36703 16.369 7.92703 16.449 7.45703C16.539 6.98703 16.584 6.54203 16.584 6.12203C16.584 5.66203 16.529 5.27703 16.419 4.96703C16.319 4.65703 16.154 4.50203 15.924 4.50203C15.624 4.50203 15.359 4.63203 15.129 4.89203C14.899 5.15203 14.704 5.48703 14.544 5.89703C14.384 6.29703 14.259 6.73203 14.169 7.20203C14.089 7.67203 14.049 8.11703 14.049 8.53703C14.049 8.99703 14.104 9.38203 14.214 9.69203C14.324 10.002 14.489 10.157 14.709 10.157ZM29.1517 11.792C28.8417 11.792 28.5617 11.702 28.3117 11.522C28.0617 11.332 27.8617 11.087 27.7117 10.787C27.5617 10.487 27.4867 10.172 27.4867 9.84203C27.4867 9.54203 27.5067 9.20703 27.5467 8.83703C27.5967 8.46703 27.6567 8.09703 27.7267 7.72703C27.7967 7.35703 27.8717 7.02703 27.9517 6.73703L27.8917 6.70703C27.6617 7.16703 27.4167 7.68203 27.1567 8.25203C26.9067 8.82203 26.6767 9.40703 26.4667 10.007C26.2567 10.607 26.0867 11.182 25.9567 11.732C25.6567 11.722 25.3667 11.702 25.0867 11.672C24.8167 11.642 24.6117 11.542 24.4717 11.372C24.2117 11.242 24.0217 11.042 23.9017 10.772C23.7817 10.502 23.7067 10.192 23.6767 9.84203C23.6467 9.49203 23.6317 9.14203 23.6317 8.79203C23.6317 8.66203 23.6417 8.47203 23.6617 8.22203C23.6917 7.97203 23.7267 7.70203 23.7667 7.41203C23.8167 7.11203 23.8667 6.83203 23.9167 6.57203H23.8717C23.4517 7.39203 23.0517 8.23203 22.6717 9.09203C22.3017 9.95203 21.9817 10.832 21.7117 11.732C21.4117 11.722 21.1667 11.672 20.9767 11.582C20.7867 11.492 20.6017 11.357 20.4217 11.177C20.1317 11.017 19.9267 10.807 19.8067 10.547C19.6867 10.277 19.6267 9.99203 19.6267 9.69203C19.6267 8.77203 19.6817 7.75203 19.7917 6.63203C19.9117 5.51203 20.0967 4.36703 20.3467 3.19703C20.3967 2.99703 20.4767 2.89703 20.5867 2.89703C20.8367 2.89703 21.0867 2.95703 21.3367 3.07703C21.5867 3.19703 21.7917 3.37703 21.9517 3.61703C22.1217 3.85703 22.2067 4.15703 22.2067 4.51703C22.2067 4.58703 22.2017 4.66703 22.1917 4.75703C22.1817 4.83703 22.1667 4.91703 22.1467 4.99703L21.5467 7.81703H21.5767C21.9667 6.95703 22.3517 6.16203 22.7317 5.43203C23.1217 4.69203 23.5267 4.08703 23.9467 3.61703C24.0367 3.50703 24.1717 3.45203 24.3517 3.45203C24.6317 3.45203 24.9317 3.57203 25.2517 3.81203C25.4817 3.90203 25.6567 4.02703 25.7767 4.18703C25.9067 4.33703 25.9717 4.49703 25.9717 4.66703C25.9717 4.68703 25.9717 4.71203 25.9717 4.74203C25.9717 4.77203 25.9667 4.79703 25.9567 4.81703C25.7967 5.39703 25.6667 6.01703 25.5667 6.67703C25.4667 7.33703 25.4117 7.97203 25.4017 8.58203L25.4767 8.59703C25.7967 7.82703 26.1267 7.09203 26.4667 6.39203C26.8067 5.68203 27.2567 4.96703 27.8167 4.24703C27.8967 4.15703 28.0167 4.11203 28.1767 4.11203C28.4667 4.11203 28.7817 4.23203 29.1217 4.47203C29.3517 4.55203 29.5417 4.66203 29.6917 4.80203C29.8417 4.94203 29.9517 5.08703 30.0217 5.23703C29.8717 5.96703 29.7467 6.78703 29.6467 7.69703C29.5467 8.59703 29.4967 9.45203 29.4967 10.262C29.4967 10.522 29.5017 10.772 29.5117 11.012C29.5317 11.252 29.5517 11.482 29.5717 11.702C29.4417 11.762 29.3017 11.792 29.1517 11.792ZM32.6646 12.047C32.3046 12.047 31.9746 12.007 31.6746 11.927C31.3846 11.847 31.1596 11.702 30.9996 11.492C30.8396 11.282 30.7696 10.977 30.7896 10.577C30.7996 10.437 30.8096 10.292 30.8196 10.142C30.8396 9.98203 30.8846 9.84203 30.9546 9.72203C31.0246 9.59203 31.1346 9.50703 31.2846 9.46703C31.4146 9.44703 31.5696 9.43203 31.7496 9.42203C31.9396 9.41203 32.0996 9.40703 32.2296 9.40703C32.5296 9.40703 32.8596 9.45703 33.2196 9.55703C33.3196 9.57703 33.3896 9.60203 33.4296 9.63203C33.4696 9.65203 33.4896 9.69703 33.4896 9.76703C33.4896 10.017 33.4496 10.307 33.3696 10.637C33.2996 10.957 33.2246 11.407 33.1446 11.987C32.9746 12.027 32.8146 12.047 32.6646 12.047Z" fill="black"/>
</svg>
